HIERARCHY
ROOT pelvis
{
  OFFSET 0 100 0
  CHANNELS 6 Xposition Yposition Zposition Zrotation Xrotation Yrotation
  JOINT pelvis_right_femur
  {
    OFFSET -10.78128 -3.44521 -0.5502486
    CHANNELS 3 Zrotation Xrotation Yrotation
    JOINT right_femur_tibia
    {
      OFFSET -0.8047443 -44.0398 -0.1307829
      CHANNELS 3 Zrotation Xrotation Yrotation
      JOINT right_tibia_foot
      {
        OFFSET 3.006224 -47.83518 -5
        CHANNELS 3 Zrotation Xrotation Yrotation
        End Site
        {
          OFFSET 0 -5 15
        }
      }
    }
  }
  JOINT pelvis_left_femur
  {
    OFFSET 10.78128 -3.44521 -0.5502486
    CHANNELS 3 Zrotation Xrotation Yrotation
    JOINT left_femur_tibia
    {
      OFFSET 0.8047443 -44.0398 -0.1307829
      CHANNELS 3 Zrotation Xrotation Yrotation
      JOINT left_tibia_foot
      {
        OFFSET -4.370144 -48.10324 -4.275266
        CHANNELS 3 Zrotation Xrotation Yrotation
        End Site
        {
          OFFSET 0 -5 15
        }
      }
    }
  }
  JOINT pelvis_spine1
  {
    OFFSET 0 6.468898 -3.129235
    CHANNELS 3 Zrotation Xrotation Yrotation
    JOINT spine1
    {
      OFFSET 0 23.15396 4.99043
      CHANNELS 3 Zrotation Xrotation Yrotation
      JOINT spine2
      {
        OFFSET 0 20.79997 -5.064912
        CHANNELS 3 Zrotation Xrotation Yrotation
        JOINT neck
        {
          OFFSET 0 14.38658 9.616178
          CHANNELS 3 Zrotation Xrotation Yrotation
          End Site
          {
            OFFSET 0 20 0
          }
        }
      }
      JOINT right_manubrium
      {
        OFFSET -5.722621 16.35077 3.967754
        CHANNELS 3 Zrotation Xrotation Yrotation
        JOINT right_clavicle
        {
          OFFSET -13.16364 1.694482 -4.693211
          CHANNELS 3 Zrotation Xrotation Yrotation
          JOINT right_humerus
          {
            OFFSET -28.5034 -0.3100689 -2.792744
            CHANNELS 3 Zrotation Xrotation Yrotation
            JOINT right_radius
            {
              OFFSET -25.15693 0.02248979 -1.271978
              CHANNELS 3 Zrotation Xrotation Yrotation
              End Site
              {
                OFFSET -15 0 0
              }
            }
          }
        }
      }
      JOINT left_manubrium
      {
        OFFSET 5.722621 16.35077 3.967754
        CHANNELS 3 Zrotation Xrotation Yrotation
        JOINT left_clavicle
        {
          OFFSET 13.16364 1.694482 -4.693211
          CHANNELS 3 Zrotation Xrotation Yrotation
          JOINT left_humerus
          {
            OFFSET 29.39168 -1.063119 -2.237045
            CHANNELS 3 Zrotation Xrotation Yrotation
            JOINT left_radius
            {
              OFFSET 24.59957 -0.9528479 0.9047498
              CHANNELS 3 Zrotation Xrotation Yrotation
              End Site
              {
                OFFSET 15 -0 -0
              }
            }
          }
        }
      }
    }
  }
}
MOTION
Frames: 19
Frame Time: 0.0416666666667
0 103.5113 0 1.333161 -1.074155 -0.3352561 2.837278 -14.19528 10.18501 -0 39.19548 -0 -6.165453 -14.86502 -2.991232 -7.534278 8.762798 -22.46372 -0 5.869602 -0 15.00672 -12.57155 30.30015 -4.587208 -4.753779 5.188615 2.797506 11.45133 -8.16784 1.045051 21.51556 6.843823 3.25509 -24.67672 9.097846 7.202986 -20.64947 12.41828 85.35619 37.53497 -18.57056 -0 0 16.13862 -9.121723 9.051558 5.447421 5.93503 -20.61765 -1.581604 -91.93627 19.96201 20.2788 0 0 -13.67114 14.62918 14.83319 -3.332957
0.3544967 103.4411 1.450731 1.166658 -0.6822166 -0.6126362 2.977398 -15.63299 9.742777 -0 38.74815 -0 -6.540189 -14.09759 -2.799461 -7.415165 8.579482 -22.00595 -0 5.265359 -0 14.7487 -13.10533 29.45707 -4.498913 -4.464212 5.073077 2.84525 11.42269 -8.307587 0.9163927 21.34019 7.009446 3.371247 -24.88471 9.047744 7.280225 -20.60867 12.46443 85.39984 37.86796 -18.70851 -0 0 15.97589 -9.396179 9.264823 5.671467 6.01876 -20.89022 -1.634406 -91.68883 19.84196 20.14367 0 0 -14.2119 14.65892 14.68044 -3.256619
0.6690751 103.2016 3.042653 0.512682 -0.03573403 -0.7976748 4.320527 -19.1374 9.655921 -0 35.892 -0 -6.239759 -14.50961 -2.778015 -6.853784 9.620719 -22.01674 -0 5.591656 -0 12.26688 -15.81959 28.14664 -3.871953 -3.800445 4.811256 3.007191 10.48963 -8.098042 1.287615 21.27751 6.812605 3.276888 -25.43508 9.37069 6.73424 -20.23655 12.10754 85.15436 36.09128 -18.5031 -0 0 16.44664 -7.996127 8.438057 4.89015 6.28309 -20.39667 -1.260529 -92.82233 21.76617 20.78945 0 0 -14.15577 13.06383 15.62437 -1.498956
0.9530966 102.8287 4.898034 -0.001875456 0.7723242 -0.8297688 5.284759 -22.56339 9.17478 -0 32.89256 -0 -6.362057 -13.7503 -2.623136 -6.394968 10.30034 -21.44985 -0 6.07379 -0 10.07785 -18.07164 26.28042 -3.441987 -3.156979 4.54834 3.154567 9.803754 -8.075607 1.46477 21.07459 6.777099 3.336781 -25.89951 9.493253 6.408207 -19.78161 11.84223 85.13674 35.20861 -18.64128 -0 0 16.34489 -7.391307 8.141363 4.548112 6.563498 -20.34779 -1.013243 -93.23501 22.95235 20.8701 0 0 -14.70596 11.91589 16.07244 -0.1715213
1.201399 102.3122 7.159305 -0.4836531 1.705063 -0.6800691 6.092371 -26.25279 8.389769 -0 29.15321 -0 -6.660762 -12.22798 -2.417584 -5.933378 11.01036 -20.44075 -0 6.845212 -0 7.672797 -20.24233 23.84498 -3.068487 -2.485648 4.245252 3.300002 9.174182 -8.151501 1.571755 20.7837 6.806482 3.472176 -26.29289 9.509339 6.114596 -19.17594 11.57235 85.29699 34.62089 -19.04481 -0 0 15.82577 -7.225627 8.143827 4.402976 6.905611 -20.55152 -0.8207594 -93.17595 23.84894 20.46363 0 0 -15.74703 10.87426 16.27156 1.057009
1.407294 101.63 9.963186 -0.9028741 2.634062 -0.3492698 6.642915 -29.86863 7.320845 -0 24.77311 -0 -7.045366 -10.0894 -2.200663 -5.492307 11.82028 -19.0385 -0 7.89622 -0 5.189275 -22.08498 21.03797 -2.757361 -1.863897 3.915446 3.424664 8.653647 -8.314515 1.614302 20.43703 6.882178 3.650998 -26.53639 9.418914 5.824652 -18.44267 11.30635 85.66323 34.24624 -19.71009 -0 0 14.89128 -7.558127 8.456686 4.464028 7.299383 -20.99256 -0.7118254 -92.56957 24.32753 19.47062 0 0 -17.24313 10.06689 16.19138 2.016472
1.564102 100.7565 13.44647 -1.250571 3.456662 0.1355853 6.881179 -33.1474 5.976211 -0 19.83739 -0 -7.426578 -7.499476 -2.019478 -5.081322 12.82506 -17.30084 -0 9.267752 -0 2.689269 -23.42887 18.01027 -2.491702 -1.346016 3.55899 3.51567 8.257669 -8.54848 1.603515 20.06842 6.984063 3.840647 -26.57074 9.227419 5.500914 -17.58724 11.04226 86.26139 33.96915 -20.63308 -0 0 13.5507 -8.399453 9.057769 4.729209 7.724539 -21.62849 -0.707365 -91.41365 24.34942 17.85544 0 0 -19.15339 9.509421 15.83636 2.669836
1.668405 99.67919 17.72269 -1.516053 4.055572 0.7176833 6.790363 -35.71028 4.429895 -0 14.66999 -0 -7.711936 -4.742527 -1.934 -4.71801 14.06863 -15.35325 -0 11.01364 -0 0.3155191 -24.05453 15.00497 -2.246012 -0.9951961 3.182221 3.561566 8.002348 -8.826703 1.548175 19.72481 7.089201 4.001532 -26.35326 8.948186 5.118528 -16.64231 10.78897 87.08703 33.67611 -21.76341 -0 0 11.86788 -9.7018 9.880536 5.187325 8.129055 -22.37604 -0.8274377 -89.80459 23.89539 15.69997 0 0 -21.34321 9.199667 15.22883 3.003197
1.721394 98.42532 22.85045 -1.702423 4.320377 1.315191 6.460449 -37.14298 2.872441 -0 9.881933 -0 -7.822211 -2.249503 -2.017021 -4.409805 15.51373 -13.40339 -0 13.22935 -0 -1.786135 -23.75459 12.30104 -1.974622 -0.8544393 2.792324 3.557223 7.87842 -9.106593 1.457361 19.46815 7.171914 4.088924 -25.88149 8.609404 4.67073 -15.66545 10.56224 88.08041 33.26269 -22.98111 -0 0 9.987282 -11.29699 10.79091 5.789828 8.419905 -23.08876 -1.08281 -87.97491 23.0744 13.25601 0 0 -23.55491 9.043901 14.43514 3.11845
1.727769 97.09563 28.79018 -1.842039 4.17632 1.834034 6.13199 -37.08905 1.646273 -0 6.40036 -0 -7.733106 -0.5885611 -2.327689 -4.135852 16.97317 -11.74945 -0 16.12115 -0 -3.535114 -22.39161 10.15368 -1.612627 -0.9165102 2.40441 3.509561 7.835979 -9.323365 1.346097 19.37147 7.201201 4.059901 -25.22764 8.259602 4.184245 -14.74233 10.38375 89.09852 32.66438 -24.07113 -0 0 8.161246 -12.82955 11.57236 6.410306 8.465108 -23.54753 -1.454938 -86.29336 22.20826 10.97445 0 0 -25.35902 8.84479 13.59268 3.255357
1.691688 95.88867 35.36575 -1.999426 3.620234 2.188527 6.122759 -35.3988 1.143957 -0 5.286336 -0 -7.543217 -0.3074387 -2.863867 -3.839828 18.05308 -10.71641 -0 20.1003 -0 -4.984566 -19.98509 8.702161 -1.100082 -1.089567 2.05179 3.439872 7.787525 -9.395997 1.239567 19.5035 7.142768 3.892505 -24.55134 7.957235 3.735104 -13.96958 10.27721 89.92796 31.91641 -24.75351 -0 0 6.714369 -13.77461 11.96369 6.83562 8.127807 -23.50636 -1.874944 -85.18924 21.82957 9.437861 0 0 -26.19437 8.337721 12.90793 3.756598
1.613123 95.08433 42.26046 -2.232001 2.73355 2.322432 6.622709 -32.22721 1.562681 -0 7.231195 -0 -7.515581 -1.608766 -3.522082 -3.473035 18.16241 -10.49378 -0 25.81176 -0 -6.274887 -16.79287 7.940499 -0.4403666 -1.19547 1.800776 3.375804 7.658023 -9.250532 1.172847 19.9034 6.966089 3.61546 -24.05203 7.737525 3.447005 -13.4217 10.2649 90.35899 31.20487 -24.78886 -0 0 5.915 -13.63839 11.76139 6.845687 7.342198 -22.82374 -2.221256 -85.03665 22.44357 9.178262 0 0 -25.55888 7.332496 12.59048 4.893991
1.489445 94.96185 49.0787 -2.505813 1.639835 2.222108 7.51095 -27.9672 2.687789 -0 11.83893 -0 -8.000665 -4.018147 -4.117097 -3.082755 16.6527 -10.92537 -0 33.89819 -0 -7.446356 -13.31515 7.791264 0.2316995 -1.0341 1.756326 3.327821 7.475837 -8.857067 1.178603 20.55736 6.65927 3.330525 -23.84015 7.568228 3.448123 -13.12209 10.36639 90.29279 30.85033 -24.11705 -0 0 5.792297 -12.34245 10.96515 6.389047 6.200186 -21.64041 -2.373063 -86.00945 24.0842 10.39613 0 0 -23.34667 5.916992 12.73341 6.599137
1.320094 95.66693 55.46876 -2.645101 0.4322847 1.916196 8.372765 -23.02371 3.913649 -0 17.22584 -0 -9.228073 -6.444532 -4.438088 -2.817106 13.05645 -11.45811 -0 44.32696 -0 -8.270936 -10.15407 8.20969 0.6516007 -0.499331 2.039686 3.262304 7.420098 -8.255814 1.260853 21.39049 6.249249 3.190278 -23.80865 7.338399 3.785468 -13.06133 10.59517 89.78302 31.18332 -22.89478 -0 0 6.079274 -10.50973 9.88177 5.712121 4.977729 -20.43676 -2.310138 -87.86651 26.04918 12.701 0 0 -20.11085 4.556528 13.24138 8.313881
1.10513 97.08844 61.23982 -2.431166 -0.8283197 1.460629 8.736778 -17.61141 4.53609 -0 20.58553 -0 -11.10807 -7.897343 -4.282927 -2.728222 7.26823 -11.42042 -0 55.48355 -0 -8.347927 -7.772441 9.193133 0.5705469 0.3399192 2.724852 3.105172 7.70957 -7.542685 1.368917 22.27466 5.815669 3.312373 -23.6661 6.91995 4.347399 -13.27455 10.94442 88.93109 32.34692 -21.32262 -0 0 6.462205 -9.263527 9.042942 5.287701 4.044295 -19.79547 -2.151431 -89.84311 27.26799 15.16178 0 0 -16.91472 3.875892 13.87044 9.249004
0.8458481 98.81696 66.39838 -1.822553 -1.999826 0.9112452 8.391165 -11.77004 4.152531 -0 19.68121 -0 -13.21524 -8.412928 -3.537934 -2.559027 -0.4195626 -10.43455 -0 63.8412 -0 -7.464004 -6.315151 10.67694 -0.02377682 1.273364 3.751511 2.796266 8.363422 -6.817705 1.400217 23.04586 5.479508 3.681065 -23.17169 6.275596 4.871526 -13.90144 11.36388 87.69215 34.14555 -19.35867 -0 0 6.993432 -9.55553 8.86329 5.60714 3.677695 -19.96649 -2.041234 -91.09717 27.08877 16.93055 0 0 -14.72411 4.166475 14.31356 9.002186
0.5709138 100.2385 71.10524 -1.062719 -2.782066 0.2879044 7.519021 -5.575819 2.879847 -0 14.26436 -0 -14.96169 -9.168292 -2.325645 -1.841381 -9.295174 -8.582469 -0 65.17147 -0 -5.864556 -5.627733 12.44108 -0.8354749 2.066697 4.889827 2.351678 9.077451 -6.143026 1.252325 23.54159 5.354306 4.129929 -22.35671 5.521731 5.066573 -15.11083 11.7471 85.81543 36.07317 -16.64516 -0 0 8.177885 -11.55744 9.285938 6.967782 3.908145 -20.62936 -1.99418 -91.43521 25.70151 17.95614 0 0 -13.80232 5.070319 14.31893 7.960552
0.3620784 100.7642 75.60444 -0.4987752 -2.87207 -0.429466 6.496546 0.6903553 1.218713 -0 6.331501 -0 -15.84076 -11.3619 -0.9773122 -0.3109585 -18.18434 -6.281531 -0 57.19906 -0 -4.112899 -5.432008 14.17188 -1.475196 2.548499 5.839767 1.861043 9.417084 -5.543206 0.9058203 23.66882 5.475765 4.444906 -21.48894 4.873706 4.781721 -16.89426 11.95513 83.13133 37.53363 -12.89802 -0 0 10.47741 -14.61442 9.829578 9.272562 4.520813 -21.12743 -1.89811 -91.32101 23.88105 18.82962 0 0 -13.63861 5.858234 13.84952 6.976099
0.3180922 100.0927 80.14985 -0.270936 -2.264112 -1.238343 5.559776 6.613351 -0.272393 0 -0.9439312 0 -15.66118 -14.86595 0.2379769 1.700208 -25.64609 -4.142793 -0 41.77051 -0 -2.676568 -5.48579 15.65629 -1.780129 2.617267 6.417315 1.413567 9.182196 -5.020624 0.4715623 23.46693 5.762753 4.513854 -20.82586 4.50742 4.100838 -18.92728 11.88733 79.98672 38.12554 -8.468228 -0 0 13.69561 -17.74593 10.04166 11.98665 5.199568 -20.97452 -1.661411 -91.26179 22.36752 20.00273 0 0 -13.41803 6.056347 13.10723 6.620098
